<?xml version="1.0" encoding="UTF-8" standalone="no"?>
<!-- Created with Inkscape (http://www.inkscape.org/) -->

<svg
   width="200mm"
   height="200mm"
   viewBox="0 0 200 200"
   version="1.1"
   id="svg1"
   inkscape:version="1.3.2 (091e20e, 2023-11-25)"
   sodipodi:docname="drawing.svg"
   inkscape:export-filename="../blog/vector_assets/convexity.png"
   inkscape:export-xdpi="38.099998"
   inkscape:export-ydpi="38.099998"
   xmlns:inkscape="http://www.inkscape.org/namespaces/inkscape"
   xmlns:sodipodi="http://sodipodi.sourceforge.net/DTD/sodipodi-0.dtd"
   xmlns="http://www.w3.org/2000/svg"
   xmlns:svg="http://www.w3.org/2000/svg">
  <sodipodi:namedview
     id="namedview1"
     pagecolor="#ffffff"
     bordercolor="#000000"
     borderopacity="0.25"
     inkscape:showpageshadow="2"
     inkscape:pageopacity="0.0"
     inkscape:pagecheckerboard="0"
     inkscape:deskcolor="#d1d1d1"
     inkscape:document-units="mm"
     inkscape:zoom="0.595"
     inkscape:cx="155.46218"
     inkscape:cy="360.5042"
     inkscape:window-width="1920"
     inkscape:window-height="942"
     inkscape:window-x="0"
     inkscape:window-y="25"
     inkscape:window-maximized="1"
     inkscape:current-layer="g5" />
  <defs
     id="defs1">
    <rect
       x="285.71429"
       y="78.991597"
       width="73.000143"
       height="30.172252"
       id="rect6" />
    <rect
       x="285.71429"
       y="78.9916"
       width="55.965752"
       height="31.566141"
       id="rect6-3" />
  </defs>
  <g
     inkscape:label="Layer 1"
     inkscape:groupmode="layer"
     id="layer1">
    <g
       id="g6"
       transform="matrix(0.85158115,0.86700617,-0.85158115,0.86700617,134.46812,-44.669309)"
       style="stroke-width:0.8229262;stroke-dasharray:none">
      <path
         style="fill:#000000;fill-opacity:0;stroke:#000000;stroke-width:0.8229262;stroke-dasharray:none;stroke-opacity:1"
         d="m 18.019986,150.61149 c 0,0 -1.557282,-23.35924 18.242457,-28.92096 19.799739,-5.56173 15.795297,12.45826 28.920966,13.79307 13.125669,1.33482 12.235794,-8.45382 19.3548,-10.67851 7.119008,-2.22469 13.793078,4.44938 14.905415,11.79086 1.112346,7.34147 1.112346,26.91875 -9.343687,36.70738 -10.456046,9.78864 -40.044419,14.68295 -56.729591,6.4516 -16.685173,-8.23135 -15.35036,-29.14344 -15.35036,-29.14344 z"
         id="path1" />
      <circle
         style="fill:#000000;fill-opacity:1;stroke:#000000;stroke-width:0.8229262;stroke-dasharray:none;stroke-opacity:1"
         id="path3"
         cx="46.273548"
         cy="127.25225"
         r="1.5572828" />
      <circle
         style="fill:#000000;fill-opacity:1;stroke:#000000;stroke-width:0.8229262;stroke-dasharray:none;stroke-opacity:1"
         id="path3-3"
         cx="86.630447"
         cy="130.19531"
         r="1.5572828" />
      <path
         style="fill:#ef767a;fill-opacity:1;stroke:#ef767a;stroke-width:0.8229262;stroke-linecap:round;stroke-dasharray:none;stroke-opacity:1"
         d="m 46.496014,127.25225 40.044418,2.8921"
         id="path4" />
    </g>
    <g
       id="g5"
       transform="rotate(30,131.56629,65.683529)">
      <path
         style="fill:#000000;fill-opacity:0;stroke:#000000;stroke-width:1;stroke-dasharray:none;stroke-opacity:1"
         d="m 102.20271,26.499316 c 0,0 -9.825804,7.37054 -10.502493,25.608825 -0.676678,18.23829 4.063882,30.204894 22.006973,38.351837 17.94309,8.146943 43.15307,2.994189 55.80656,-9.135573 12.1463,-11.643575 15.97776,-30.572793 9.76443,-47.828246 -6.21334,-17.255451 -31.19229,-26.7584944 -51.22021,-21.447851 -11.39483,3.021476 -18.7126,7.999009 -25.85526,14.451008 z"
         id="path2"
         sodipodi:nodetypes="csssssc" />
      <ellipse
         style="fill:#000000;fill-opacity:1;stroke:#000000;stroke-width:1.14631;stroke-dasharray:none;stroke-opacity:1"
         id="path3-2"
         cx="93.97879"
         cy="63.43195"
         rx="1.7389052"
         ry="1.8325907"
         transform="matrix(0.99890866,0.04670646,0.04431874,0.99901744,0,0)" />
      <ellipse
         style="fill:#000000;fill-opacity:1;stroke:#000000;stroke-width:1.14631;stroke-dasharray:none;stroke-opacity:1"
         id="path3-7"
         cx="124.13823"
         cy="84.488968"
         rx="1.7389052"
         ry="1.8325907"
         transform="matrix(0.99890866,0.04670646,0.04431874,0.99901744,0,0)" />
      <path
         style="fill:#ef767a;fill-opacity:1;stroke:#ef767a;stroke-width:1.14394;stroke-linecap:round;stroke-dasharray:none;stroke-opacity:1"
         d="m 96.98632,67.910621 30.96523,22.588774"
         id="path4-7"
         sodipodi:nodetypes="cc" />
      <text
         xml:space="preserve"
         transform="matrix(0.24868076,-0.14357591,0.15950963,0.27627877,-16.360812,70.394713)"
         id="text6"
         style="white-space:pre;shape-inside:url(#rect6);display:inline;fill:#ef767a;fill-opacity:1;stroke:#ef767a;stroke-width:3.77953;stroke-linecap:round;stroke-dasharray:none;stroke-opacity:1"><tspan
           x="285.71484"
           y="100.25979"
           id="tspan3"><tspan
             style="font-style:italic;font-size:23.3113px;font-family:Sans;-inkscape-font-specification:'Sans, Italic';stroke:none"
             id="tspan1">Set A</tspan></tspan></text>
      <text
         xml:space="preserve"
         transform="matrix(0.29949062,-0.17291099,0.19557983,0.33875421,-33.032908,137.40473)"
         id="text6-6"
         style="white-space:pre;shape-inside:url(#rect6-3);display:inline;fill:#ef767a;fill-opacity:1;stroke:#ef767a;stroke-width:3.77953;stroke-linecap:round;stroke-dasharray:none;stroke-opacity:1"><tspan
           x="285.71484"
           y="96.493876"
           id="tspan5"><tspan
             style="font-style:italic;font-size:19.1835px;font-family:Sans;-inkscape-font-specification:'Sans, Italic';stroke:none"
             id="tspan4">Set B</tspan></tspan></text>
    </g>
  </g>
</svg>
